{
	"patcher" : 	{
		"fileversion" : 1,
		"rect" : [ 45.0, 45.0, 1290.0, 945.0 ],
		"bglocked" : 0,
		"defrect" : [ 45.0, 45.0, 1290.0, 945.0 ],
		"openrect" : [ 0.0, 0.0, 0.0, 0.0 ],
		"openinpresentation" : 0,
		"default_fontsize" : 12.0,
		"default_fontface" : 0,
		"default_fontname" : "Arial",
		"gridonopen" : 0,
		"gridsize" : [ 15.0, 15.0 ],
		"gridsnaponopen" : 0,
		"toolbarvisible" : 1,
		"boxanimatetime" : 200,
		"imprint" : 0,
		"enablehscroll" : 1,
		"enablevscroll" : 1,
		"devicewidth" : 0.0,
		"boxes" : [ 			{
				"box" : 				{
					"maxclass" : "button",
					"outlettype" : [ "bang" ],
					"patching_rect" : [ 864.0, 386.0, 20.0, 20.0 ],
					"id" : "obj-22",
					"numinlets" : 1,
					"numoutlets" : 1
				}

			}
, 			{
				"box" : 				{
					"maxclass" : "newobj",
					"text" : "p reset",
					"outlettype" : [ "" ],
					"patching_rect" : [ 860.0, 420.0, 47.0, 20.0 ],
					"fontsize" : 12.0,
					"id" : "obj-19",
					"numinlets" : 1,
					"numoutlets" : 1,
					"fontname" : "Arial",
					"patcher" : 					{
						"fileversion" : 1,
						"rect" : [ 25.0, 69.0, 640.0, 480.0 ],
						"bglocked" : 0,
						"defrect" : [ 25.0, 69.0, 640.0, 480.0 ],
						"openrect" : [ 0.0, 0.0, 0.0, 0.0 ],
						"openinpresentation" : 0,
						"default_fontsize" : 12.0,
						"default_fontface" : 0,
						"default_fontname" : "Arial",
						"gridonopen" : 0,
						"gridsize" : [ 15.0, 15.0 ],
						"gridsnaponopen" : 0,
						"toolbarvisible" : 1,
						"boxanimatetime" : 200,
						"imprint" : 0,
						"enablehscroll" : 1,
						"enablevscroll" : 1,
						"devicewidth" : 0.0,
						"boxes" : [ 							{
								"box" : 								{
									"maxclass" : "button",
									"outlettype" : [ "bang" ],
									"patching_rect" : [ 270.0, 36.0, 20.0, 20.0 ],
									"id" : "obj-19",
									"numinlets" : 1,
									"numoutlets" : 1
								}

							}
, 							{
								"box" : 								{
									"maxclass" : "newobj",
									"text" : "0",
									"outlettype" : [ "int" ],
									"patching_rect" : [ 140.0, 208.0, 32.5, 20.0 ],
									"fontsize" : 12.0,
									"id" : "obj-17",
									"numinlets" : 2,
									"numoutlets" : 1,
									"fontname" : "Arial"
								}

							}
, 							{
								"box" : 								{
									"maxclass" : "newobj",
									"text" : "3",
									"outlettype" : [ "int" ],
									"patching_rect" : [ 189.0, 172.0, 32.5, 20.0 ],
									"fontsize" : 12.0,
									"id" : "obj-16",
									"numinlets" : 2,
									"numoutlets" : 1,
									"fontname" : "Arial"
								}

							}
, 							{
								"box" : 								{
									"maxclass" : "newobj",
									"text" : "2",
									"outlettype" : [ "int" ],
									"patching_rect" : [ 144.0, 175.0, 32.5, 20.0 ],
									"fontsize" : 12.0,
									"id" : "obj-15",
									"numinlets" : 2,
									"numoutlets" : 1,
									"fontname" : "Arial"
								}

							}
, 							{
								"box" : 								{
									"maxclass" : "newobj",
									"text" : "1",
									"outlettype" : [ "int" ],
									"patching_rect" : [ 104.0, 175.0, 32.5, 20.0 ],
									"fontsize" : 12.0,
									"id" : "obj-13",
									"numinlets" : 2,
									"numoutlets" : 1,
									"fontname" : "Arial"
								}

							}
, 							{
								"box" : 								{
									"maxclass" : "newobj",
									"text" : "sel 1 2 3 4",
									"outlettype" : [ "bang", "bang", "bang", "bang", "" ],
									"patching_rect" : [ 136.0, 137.0, 73.0, 20.0 ],
									"fontsize" : 12.0,
									"id" : "obj-12",
									"numinlets" : 1,
									"numoutlets" : 5,
									"fontname" : "Arial"
								}

							}
, 							{
								"box" : 								{
									"maxclass" : "inlet",
									"outlettype" : [ "bang" ],
									"patching_rect" : [ 214.0, 24.0, 25.0, 25.0 ],
									"id" : "obj-10",
									"numinlets" : 0,
									"numoutlets" : 1,
									"comment" : ""
								}

							}
, 							{
								"box" : 								{
									"maxclass" : "newobj",
									"text" : "t b",
									"outlettype" : [ "bang" ],
									"patching_rect" : [ 212.0, 64.0, 24.0, 20.0 ],
									"fontsize" : 12.0,
									"id" : "obj-9",
									"numinlets" : 1,
									"numoutlets" : 1,
									"fontname" : "Arial"
								}

							}
, 							{
								"box" : 								{
									"maxclass" : "outlet",
									"patching_rect" : [ 196.0, 373.0, 25.0, 25.0 ],
									"id" : "obj-8",
									"numinlets" : 1,
									"numoutlets" : 0,
									"comment" : ""
								}

							}
, 							{
								"box" : 								{
									"maxclass" : "newobj",
									"text" : "pack 0 0 0. 1.2 0.5",
									"outlettype" : [ "" ],
									"patching_rect" : [ 204.0, 209.0, 109.0, 20.0 ],
									"fontsize" : 12.0,
									"id" : "obj-6",
									"numinlets" : 5,
									"numoutlets" : 1,
									"fontname" : "Arial"
								}

							}
, 							{
								"box" : 								{
									"maxclass" : "newobj",
									"text" : "* 1.570796",
									"outlettype" : [ "float" ],
									"patching_rect" : [ 240.0, 160.0, 69.0, 20.0 ],
									"fontsize" : 12.0,
									"id" : "obj-3",
									"numinlets" : 2,
									"numoutlets" : 1,
									"fontname" : "Arial"
								}

							}
, 							{
								"box" : 								{
									"maxclass" : "newobj",
									"text" : "- 3",
									"outlettype" : [ "int" ],
									"patching_rect" : [ 240.0, 125.0, 32.5, 20.0 ],
									"fontsize" : 12.0,
									"id" : "obj-2",
									"numinlets" : 2,
									"numoutlets" : 1,
									"fontname" : "Arial"
								}

							}
, 							{
								"box" : 								{
									"maxclass" : "newobj",
									"text" : "uzi 4",
									"outlettype" : [ "bang", "bang", "int" ],
									"patching_rect" : [ 213.0, 95.0, 46.0, 20.0 ],
									"fontsize" : 12.0,
									"id" : "obj-1",
									"numinlets" : 2,
									"numoutlets" : 3,
									"fontname" : "Arial"
								}

							}
 ],
						"lines" : [ 							{
								"patchline" : 								{
									"source" : [ "obj-17", 0 ],
									"destination" : [ "obj-6", 1 ],
									"hidden" : 0,
									"midpoints" : [  ]
								}

							}
, 							{
								"patchline" : 								{
									"source" : [ "obj-13", 0 ],
									"destination" : [ "obj-6", 1 ],
									"hidden" : 0,
									"midpoints" : [  ]
								}

							}
, 							{
								"patchline" : 								{
									"source" : [ "obj-15", 0 ],
									"destination" : [ "obj-6", 1 ],
									"hidden" : 0,
									"midpoints" : [  ]
								}

							}
, 							{
								"patchline" : 								{
									"source" : [ "obj-16", 0 ],
									"destination" : [ "obj-6", 1 ],
									"hidden" : 0,
									"midpoints" : [  ]
								}

							}
, 							{
								"patchline" : 								{
									"source" : [ "obj-6", 0 ],
									"destination" : [ "obj-8", 0 ],
									"hidden" : 0,
									"midpoints" : [  ]
								}

							}
, 							{
								"patchline" : 								{
									"source" : [ "obj-3", 0 ],
									"destination" : [ "obj-6", 2 ],
									"hidden" : 0,
									"midpoints" : [  ]
								}

							}
, 							{
								"patchline" : 								{
									"source" : [ "obj-13", 0 ],
									"destination" : [ "obj-6", 0 ],
									"hidden" : 0,
									"midpoints" : [  ]
								}

							}
, 							{
								"patchline" : 								{
									"source" : [ "obj-17", 0 ],
									"destination" : [ "obj-6", 0 ],
									"hidden" : 0,
									"midpoints" : [  ]
								}

							}
, 							{
								"patchline" : 								{
									"source" : [ "obj-15", 0 ],
									"destination" : [ "obj-6", 0 ],
									"hidden" : 0,
									"midpoints" : [  ]
								}

							}
, 							{
								"patchline" : 								{
									"source" : [ "obj-16", 0 ],
									"destination" : [ "obj-6", 0 ],
									"hidden" : 0,
									"midpoints" : [  ]
								}

							}
, 							{
								"patchline" : 								{
									"source" : [ "obj-19", 0 ],
									"destination" : [ "obj-9", 0 ],
									"hidden" : 0,
									"midpoints" : [  ]
								}

							}
, 							{
								"patchline" : 								{
									"source" : [ "obj-12", 3 ],
									"destination" : [ "obj-13", 0 ],
									"hidden" : 0,
									"midpoints" : [  ]
								}

							}
, 							{
								"patchline" : 								{
									"source" : [ "obj-12", 2 ],
									"destination" : [ "obj-17", 0 ],
									"hidden" : 0,
									"midpoints" : [  ]
								}

							}
, 							{
								"patchline" : 								{
									"source" : [ "obj-12", 1 ],
									"destination" : [ "obj-15", 0 ],
									"hidden" : 0,
									"midpoints" : [  ]
								}

							}
, 							{
								"patchline" : 								{
									"source" : [ "obj-12", 0 ],
									"destination" : [ "obj-16", 0 ],
									"hidden" : 0,
									"midpoints" : [  ]
								}

							}
, 							{
								"patchline" : 								{
									"source" : [ "obj-1", 2 ],
									"destination" : [ "obj-12", 0 ],
									"hidden" : 0,
									"midpoints" : [ 249.5, 116.0, 145.5, 116.0 ]
								}

							}
, 							{
								"patchline" : 								{
									"source" : [ "obj-10", 0 ],
									"destination" : [ "obj-9", 0 ],
									"hidden" : 0,
									"midpoints" : [  ]
								}

							}
, 							{
								"patchline" : 								{
									"source" : [ "obj-9", 0 ],
									"destination" : [ "obj-1", 0 ],
									"hidden" : 0,
									"midpoints" : [  ]
								}

							}
, 							{
								"patchline" : 								{
									"source" : [ "obj-1", 2 ],
									"destination" : [ "obj-2", 0 ],
									"hidden" : 0,
									"midpoints" : [  ]
								}

							}
, 							{
								"patchline" : 								{
									"source" : [ "obj-2", 0 ],
									"destination" : [ "obj-3", 0 ],
									"hidden" : 0,
									"midpoints" : [  ]
								}

							}
 ]
					}
,
					"saved_object_attributes" : 					{
						"default_fontsize" : 12.0,
						"fontface" : 0,
						"fontsize" : 12.0,
						"default_fontface" : 0,
						"globalpatchername" : "",
						"default_fontname" : "Arial",
						"fontname" : "Arial"
					}

				}

			}
, 			{
				"box" : 				{
					"maxclass" : "message",
					"text" : "0 0 0.012145 0.60803 0.194932",
					"outlettype" : [ "" ],
					"patching_rect" : [ 912.0, 531.0, 202.0, 18.0 ],
					"fontsize" : 12.0,
					"id" : "obj-18",
					"numinlets" : 2,
					"numoutlets" : 1,
					"fontname" : "Arial"
				}

			}
, 			{
				"box" : 				{
					"maxclass" : "newobj",
					"text" : "route 0 1 2 3",
					"outlettype" : [ "", "", "", "", "" ],
					"patching_rect" : [ 950.0, 443.0, 78.0, 20.0 ],
					"fontsize" : 12.0,
					"id" : "obj-46",
					"numinlets" : 1,
					"numoutlets" : 5,
					"fontname" : "Arial"
				}

			}
, 			{
				"box" : 				{
					"maxclass" : "button",
					"outlettype" : [ "bang" ],
					"patching_rect" : [ 419.0, 76.0, 20.0, 20.0 ],
					"id" : "obj-17",
					"numinlets" : 1,
					"numoutlets" : 1
				}

			}
, 			{
				"box" : 				{
					"maxclass" : "newobj",
					"text" : "vb.setting joystick 1 zone 4",
					"outlettype" : [ "", "" ],
					"patching_rect" : [ 906.0, 36.0, 154.0, 20.0 ],
					"fontsize" : 12.0,
					"id" : "obj-15",
					"numinlets" : 1,
					"numoutlets" : 2,
					"fontname" : "Arial"
				}

			}
, 			{
				"box" : 				{
					"maxclass" : "newobj",
					"text" : "vb.setting joystick 1 zone 3",
					"outlettype" : [ "", "" ],
					"patching_rect" : [ 750.0, 36.0, 154.0, 20.0 ],
					"fontsize" : 12.0,
					"id" : "obj-10",
					"numinlets" : 1,
					"numoutlets" : 2,
					"fontname" : "Arial"
				}

			}
, 			{
				"box" : 				{
					"maxclass" : "newobj",
					"text" : "vb.setting joystick 1 zone 2",
					"outlettype" : [ "", "" ],
					"patching_rect" : [ 592.0, 36.0, 154.0, 20.0 ],
					"fontsize" : 12.0,
					"id" : "obj-9",
					"numinlets" : 1,
					"numoutlets" : 2,
					"fontname" : "Arial"
				}

			}
, 			{
				"box" : 				{
					"maxclass" : "button",
					"outlettype" : [ "bang" ],
					"patching_rect" : [ 816.0, 219.0, 20.0, 20.0 ],
					"id" : "obj-8",
					"numinlets" : 1,
					"numoutlets" : 1
				}

			}
, 			{
				"box" : 				{
					"maxclass" : "newobj",
					"text" : "s vb_load_settings",
					"patching_rect" : [ 806.0, 242.0, 110.0, 20.0 ],
					"fontsize" : 12.0,
					"id" : "obj-2",
					"numinlets" : 1,
					"numoutlets" : 0,
					"fontname" : "Arial"
				}

			}
, 			{
				"box" : 				{
					"maxclass" : "newobj",
					"text" : "prepend zone",
					"outlettype" : [ "" ],
					"patching_rect" : [ 436.0, 61.0, 84.0, 20.0 ],
					"fontsize" : 12.0,
					"id" : "obj-85",
					"numinlets" : 1,
					"numoutlets" : 1,
					"fontname" : "Arial"
				}

			}
, 			{
				"box" : 				{
					"maxclass" : "newobj",
					"text" : "vb.setting joystick 1 zone 1",
					"outlettype" : [ "", "" ],
					"patching_rect" : [ 436.0, 36.0, 154.0, 20.0 ],
					"fontsize" : 12.0,
					"id" : "obj-82",
					"numinlets" : 1,
					"numoutlets" : 2,
					"fontname" : "Arial"
				}

			}
, 			{
				"box" : 				{
					"maxclass" : "message",
					"text" : "compile",
					"outlettype" : [ "" ],
					"patching_rect" : [ 1046.0, 145.0, 52.0, 18.0 ],
					"fontsize" : 12.0,
					"id" : "obj-81",
					"numinlets" : 2,
					"numoutlets" : 1,
					"fontname" : "Arial"
				}

			}
, 			{
				"box" : 				{
					"maxclass" : "message",
					"text" : "dump",
					"outlettype" : [ "" ],
					"patching_rect" : [ 287.0, 65.0, 41.0, 18.0 ],
					"fontsize" : 12.0,
					"id" : "obj-79",
					"numinlets" : 2,
					"numoutlets" : 1,
					"fontname" : "Arial"
				}

			}
, 			{
				"box" : 				{
					"maxclass" : "message",
					"text" : "zone 3 3.0894 1.5 0.1709",
					"outlettype" : [ "" ],
					"patching_rect" : [ 348.0, 313.0, 163.0, 18.0 ],
					"fontsize" : 12.0,
					"id" : "obj-77",
					"numinlets" : 2,
					"numoutlets" : 1,
					"fontname" : "Arial"
				}

			}
, 			{
				"box" : 				{
					"maxclass" : "message",
					"text" : "-1. -1. -1. -1.",
					"linecount" : 2,
					"outlettype" : [ "" ],
					"patching_rect" : [ 427.0, 275.0, 50.0, 32.0 ],
					"fontsize" : 12.0,
					"id" : "obj-76",
					"numinlets" : 2,
					"numoutlets" : 1,
					"fontname" : "Arial"
				}

			}
, 			{
				"box" : 				{
					"maxclass" : "message",
					"text" : "-3.141593",
					"linecount" : 2,
					"outlettype" : [ "" ],
					"patching_rect" : [ 394.0, 234.0, 50.0, 32.0 ],
					"fontsize" : 12.0,
					"id" : "obj-75",
					"numinlets" : 2,
					"numoutlets" : 1,
					"fontname" : "Arial"
				}

			}
, 			{
				"box" : 				{
					"maxclass" : "comment",
					"text" : "Angle",
					"patching_rect" : [ 235.0, 204.0, 48.0, 20.0 ],
					"fontsize" : 12.0,
					"id" : "obj-74",
					"numinlets" : 1,
					"numoutlets" : 0,
					"fontname" : "Arial"
				}

			}
, 			{
				"box" : 				{
					"maxclass" : "comment",
					"text" : "Radius",
					"patching_rect" : [ 235.0, 178.0, 48.0, 20.0 ],
					"fontsize" : 12.0,
					"id" : "obj-73",
					"numinlets" : 1,
					"numoutlets" : 0,
					"fontname" : "Arial"
				}

			}
, 			{
				"box" : 				{
					"maxclass" : "message",
					"text" : "-1.",
					"outlettype" : [ "" ],
					"patching_rect" : [ 361.0, 218.0, 50.0, 18.0 ],
					"fontsize" : 12.0,
					"id" : "obj-64",
					"numinlets" : 2,
					"numoutlets" : 1,
					"fontname" : "Arial"
				}

			}
, 			{
				"box" : 				{
					"maxclass" : "message",
					"text" : "0.",
					"outlettype" : [ "" ],
					"patching_rect" : [ 328.0, 199.0, 50.0, 18.0 ],
					"fontsize" : 12.0,
					"id" : "obj-63",
					"numinlets" : 2,
					"numoutlets" : 1,
					"fontname" : "Arial"
				}

			}
, 			{
				"box" : 				{
					"maxclass" : "message",
					"text" : "0.",
					"outlettype" : [ "" ],
					"patching_rect" : [ 295.0, 179.0, 50.0, 18.0 ],
					"fontsize" : 12.0,
					"id" : "obj-59",
					"numinlets" : 2,
					"numoutlets" : 1,
					"fontname" : "Arial"
				}

			}
, 			{
				"box" : 				{
					"maxclass" : "jsui",
					"outlettype" : [ "" ],
					"patching_rect" : [ 959.0, 178.0, 255.0, 255.0 ],
					"presentation" : 1,
					"id" : "obj-57",
					"jsarguments" : [  ],
					"numinlets" : 1,
					"filename" : "vb.zone.ui.js",
					"numoutlets" : 1,
					"presentation_rect" : [ 44.0, 67.0, 255.0, 255.0 ]
				}

			}
, 			{
				"box" : 				{
					"maxclass" : "comment",
					"text" : "zone [id | angle | width | pad ]",
					"patching_rect" : [ 529.0, 62.0, 166.0, 20.0 ],
					"fontsize" : 12.0,
					"id" : "obj-41",
					"numinlets" : 1,
					"numoutlets" : 0,
					"fontname" : "Arial"
				}

			}
, 			{
				"box" : 				{
					"maxclass" : "number",
					"outlettype" : [ "int", "bang" ],
					"patching_rect" : [ 534.0, 139.0, 50.0, 20.0 ],
					"fontsize" : 12.0,
					"id" : "obj-21",
					"numinlets" : 1,
					"numoutlets" : 2,
					"fontname" : "Arial"
				}

			}
, 			{
				"box" : 				{
					"maxclass" : "number",
					"outlettype" : [ "int", "bang" ],
					"patching_rect" : [ 687.0, 141.0, 50.0, 20.0 ],
					"fontsize" : 12.0,
					"id" : "obj-16",
					"numinlets" : 1,
					"numoutlets" : 2,
					"fontname" : "Arial"
				}

			}
, 			{
				"box" : 				{
					"maxclass" : "button",
					"outlettype" : [ "bang" ],
					"patching_rect" : [ 54.0, 117.0, 20.0, 20.0 ],
					"id" : "obj-12",
					"numinlets" : 1,
					"numoutlets" : 1
				}

			}
, 			{
				"box" : 				{
					"maxclass" : "number",
					"outlettype" : [ "int", "bang" ],
					"patching_rect" : [ 74.0, 141.0, 50.0, 20.0 ],
					"fontsize" : 12.0,
					"id" : "obj-13",
					"numinlets" : 1,
					"numoutlets" : 2,
					"fontname" : "Arial"
				}

			}
, 			{
				"box" : 				{
					"maxclass" : "newobj",
					"text" : "vb.setting joystick 1 center_y",
					"outlettype" : [ "", "" ],
					"patching_rect" : [ 75.0, 116.0, 164.0, 20.0 ],
					"fontsize" : 12.0,
					"id" : "obj-14",
					"numinlets" : 1,
					"numoutlets" : 2,
					"fontname" : "Arial"
				}

			}
, 			{
				"box" : 				{
					"maxclass" : "button",
					"outlettype" : [ "bang" ],
					"patching_rect" : [ 51.0, 58.0, 20.0, 20.0 ],
					"id" : "obj-11",
					"numinlets" : 1,
					"numoutlets" : 1
				}

			}
, 			{
				"box" : 				{
					"maxclass" : "number",
					"outlettype" : [ "int", "bang" ],
					"patching_rect" : [ 74.0, 85.0, 50.0, 20.0 ],
					"fontsize" : 12.0,
					"id" : "obj-7",
					"numinlets" : 1,
					"numoutlets" : 2,
					"fontname" : "Arial"
				}

			}
, 			{
				"box" : 				{
					"maxclass" : "newobj",
					"text" : "vb.setting joystick 1 center_x",
					"outlettype" : [ "", "" ],
					"patching_rect" : [ 74.0, 59.0, 164.0, 20.0 ],
					"fontsize" : 12.0,
					"id" : "obj-5",
					"numinlets" : 1,
					"numoutlets" : 2,
					"fontname" : "Arial"
				}

			}
, 			{
				"box" : 				{
					"maxclass" : "newobj",
					"text" : "hi.dev vb www.anyma.ch videobass",
					"outlettype" : [ "" ],
					"patching_rect" : [ 127.0, 500.0, 200.0, 20.0 ],
					"fontsize" : 12.0,
					"id" : "obj-4",
					"numinlets" : 1,
					"numoutlets" : 1,
					"fontname" : "Arial"
				}

			}
, 			{
				"box" : 				{
					"maxclass" : "pictslider",
					"outlettype" : [ "int", "int" ],
					"topvalue" : 255,
					"patching_rect" : [ 585.0, 139.0, 100.0, 100.0 ],
					"id" : "obj-3",
					"numinlets" : 2,
					"numoutlets" : 2,
					"rightvalue" : 255
				}

			}
, 			{
				"box" : 				{
					"maxclass" : "newobj",
					"text" : "prepend triggers",
					"outlettype" : [ "" ],
					"patching_rect" : [ 457.0, 338.0, 98.0, 20.0 ],
					"fontsize" : 12.0,
					"id" : "obj-35",
					"hidden" : 1,
					"numinlets" : 1,
					"numoutlets" : 1,
					"fontname" : "Arial"
				}

			}
, 			{
				"box" : 				{
					"maxclass" : "newobj",
					"text" : "hi.in vb y @idx 1",
					"outlettype" : [ "int", "" ],
					"patching_rect" : [ 492.0, 92.0, 99.0, 20.0 ],
					"fontsize" : 12.0,
					"id" : "obj-32",
					"numinlets" : 1,
					"numoutlets" : 2,
					"fontname" : "Arial"
				}

			}
, 			{
				"box" : 				{
					"maxclass" : "newobj",
					"text" : "hi.in vb x @idx 1",
					"outlettype" : [ "int", "" ],
					"patching_rect" : [ 326.0, 93.0, 99.0, 20.0 ],
					"fontsize" : 12.0,
					"id" : "obj-28",
					"numinlets" : 1,
					"numoutlets" : 2,
					"fontname" : "Arial"
				}

			}
, 			{
				"box" : 				{
					"maxclass" : "newobj",
					"text" : "t b f",
					"outlettype" : [ "bang", "float" ],
					"patching_rect" : [ 326.0, 243.0, 32.5, 20.0 ],
					"fontsize" : 12.0,
					"id" : "obj-37",
					"numinlets" : 1,
					"numoutlets" : 2,
					"fontname" : "Arial"
				}

			}
, 			{
				"box" : 				{
					"maxclass" : "newobj",
					"text" : "pack ar 0. 0.",
					"outlettype" : [ "" ],
					"patching_rect" : [ 326.0, 267.0, 77.0, 20.0 ],
					"fontsize" : 12.0,
					"id" : "obj-34",
					"numinlets" : 3,
					"numoutlets" : 1,
					"fontname" : "Arial"
				}

			}
, 			{
				"box" : 				{
					"maxclass" : "newobj",
					"text" : "vb.zone @dim 255",
					"outlettype" : [ "float", "float", "float", "float", "list", "" ],
					"patching_rect" : [ 326.0, 145.0, 185.0, 20.0 ],
					"fontsize" : 12.0,
					"id" : "obj-1",
					"numinlets" : 2,
					"numoutlets" : 6,
					"fontname" : "Arial",
					"saved_object_attributes" : 					{
						"center_y" : 140,
						"center_x" : 140,
						"dim" : 255
					}

				}

			}
 ],
		"lines" : [ 			{
				"patchline" : 				{
					"source" : [ "obj-19", 0 ],
					"destination" : [ "obj-46", 0 ],
					"hidden" : 0,
					"midpoints" : [  ]
				}

			}
, 			{
				"patchline" : 				{
					"source" : [ "obj-22", 0 ],
					"destination" : [ "obj-19", 0 ],
					"hidden" : 0,
					"midpoints" : [  ]
				}

			}
, 			{
				"patchline" : 				{
					"source" : [ "obj-57", 0 ],
					"destination" : [ "obj-18", 1 ],
					"hidden" : 0,
					"midpoints" : [  ]
				}

			}
, 			{
				"patchline" : 				{
					"source" : [ "obj-46", 3 ],
					"destination" : [ "obj-15", 0 ],
					"hidden" : 0,
					"midpoints" : [  ]
				}

			}
, 			{
				"patchline" : 				{
					"source" : [ "obj-46", 2 ],
					"destination" : [ "obj-10", 0 ],
					"hidden" : 0,
					"midpoints" : [  ]
				}

			}
, 			{
				"patchline" : 				{
					"source" : [ "obj-46", 1 ],
					"destination" : [ "obj-9", 0 ],
					"hidden" : 0,
					"midpoints" : [  ]
				}

			}
, 			{
				"patchline" : 				{
					"source" : [ "obj-85", 0 ],
					"destination" : [ "obj-57", 0 ],
					"hidden" : 0,
					"midpoints" : [ 445.5, 88.0, 968.5, 88.0 ]
				}

			}
, 			{
				"patchline" : 				{
					"source" : [ "obj-85", 0 ],
					"destination" : [ "obj-1", 0 ],
					"hidden" : 0,
					"midpoints" : [ 445.5, 123.0, 335.5, 123.0 ]
				}

			}
, 			{
				"patchline" : 				{
					"source" : [ "obj-82", 0 ],
					"destination" : [ "obj-85", 0 ],
					"hidden" : 0,
					"midpoints" : [  ]
				}

			}
, 			{
				"patchline" : 				{
					"source" : [ "obj-81", 0 ],
					"destination" : [ "obj-57", 0 ],
					"hidden" : 0,
					"midpoints" : [ 1055.5, 168.0, 968.5, 168.0 ]
				}

			}
, 			{
				"patchline" : 				{
					"source" : [ "obj-35", 0 ],
					"destination" : [ "obj-57", 0 ],
					"hidden" : 0,
					"midpoints" : [ 466.5, 374.0, 898.0, 374.0, 898.0, 164.0, 968.5, 164.0 ]
				}

			}
, 			{
				"patchline" : 				{
					"source" : [ "obj-79", 0 ],
					"destination" : [ "obj-1", 0 ],
					"hidden" : 0,
					"midpoints" : [ 296.5, 119.0, 335.5, 119.0 ]
				}

			}
, 			{
				"patchline" : 				{
					"source" : [ "obj-1", 5 ],
					"destination" : [ "obj-77", 1 ],
					"hidden" : 0,
					"midpoints" : [  ]
				}

			}
, 			{
				"patchline" : 				{
					"source" : [ "obj-1", 4 ],
					"destination" : [ "obj-76", 1 ],
					"hidden" : 0,
					"midpoints" : [  ]
				}

			}
, 			{
				"patchline" : 				{
					"source" : [ "obj-1", 3 ],
					"destination" : [ "obj-75", 1 ],
					"hidden" : 0,
					"midpoints" : [  ]
				}

			}
, 			{
				"patchline" : 				{
					"source" : [ "obj-1", 2 ],
					"destination" : [ "obj-64", 1 ],
					"hidden" : 0,
					"midpoints" : [  ]
				}

			}
, 			{
				"patchline" : 				{
					"source" : [ "obj-34", 0 ],
					"destination" : [ "obj-57", 0 ],
					"hidden" : 0,
					"midpoints" : [ 335.5, 377.0, 900.0, 377.0, 900.0, 169.0, 968.5, 169.0 ]
				}

			}
, 			{
				"patchline" : 				{
					"source" : [ "obj-1", 1 ],
					"destination" : [ "obj-63", 1 ],
					"hidden" : 0,
					"midpoints" : [  ]
				}

			}
, 			{
				"patchline" : 				{
					"source" : [ "obj-1", 0 ],
					"destination" : [ "obj-59", 1 ],
					"hidden" : 0,
					"midpoints" : [  ]
				}

			}
, 			{
				"patchline" : 				{
					"source" : [ "obj-28", 0 ],
					"destination" : [ "obj-21", 0 ],
					"hidden" : 0,
					"midpoints" : [ 335.5, 117.0, 543.5, 117.0 ]
				}

			}
, 			{
				"patchline" : 				{
					"source" : [ "obj-32", 0 ],
					"destination" : [ "obj-16", 0 ],
					"hidden" : 0,
					"midpoints" : [ 501.5, 113.0, 696.5, 113.0 ]
				}

			}
, 			{
				"patchline" : 				{
					"source" : [ "obj-14", 1 ],
					"destination" : [ "obj-1", 0 ],
					"hidden" : 0,
					"midpoints" : [ 229.5, 138.0, 335.5, 138.0 ]
				}

			}
, 			{
				"patchline" : 				{
					"source" : [ "obj-12", 0 ],
					"destination" : [ "obj-14", 0 ],
					"hidden" : 0,
					"midpoints" : [  ]
				}

			}
, 			{
				"patchline" : 				{
					"source" : [ "obj-14", 0 ],
					"destination" : [ "obj-13", 0 ],
					"hidden" : 0,
					"midpoints" : [  ]
				}

			}
, 			{
				"patchline" : 				{
					"source" : [ "obj-5", 1 ],
					"destination" : [ "obj-1", 0 ],
					"hidden" : 0,
					"midpoints" : [ 228.5, 130.0, 335.5, 130.0 ]
				}

			}
, 			{
				"patchline" : 				{
					"source" : [ "obj-11", 0 ],
					"destination" : [ "obj-5", 0 ],
					"hidden" : 0,
					"midpoints" : [  ]
				}

			}
, 			{
				"patchline" : 				{
					"source" : [ "obj-5", 0 ],
					"destination" : [ "obj-7", 0 ],
					"hidden" : 0,
					"midpoints" : [  ]
				}

			}
, 			{
				"patchline" : 				{
					"source" : [ "obj-32", 0 ],
					"destination" : [ "obj-3", 1 ],
					"hidden" : 0,
					"midpoints" : [ 501.5, 115.0, 675.5, 115.0 ]
				}

			}
, 			{
				"patchline" : 				{
					"source" : [ "obj-28", 0 ],
					"destination" : [ "obj-3", 0 ],
					"hidden" : 0,
					"midpoints" : [ 335.5, 118.0, 594.5, 118.0 ]
				}

			}
, 			{
				"patchline" : 				{
					"source" : [ "obj-32", 0 ],
					"destination" : [ "obj-1", 1 ],
					"hidden" : 0,
					"midpoints" : [  ]
				}

			}
, 			{
				"patchline" : 				{
					"source" : [ "obj-28", 0 ],
					"destination" : [ "obj-1", 0 ],
					"hidden" : 0,
					"midpoints" : [  ]
				}

			}
, 			{
				"patchline" : 				{
					"source" : [ "obj-37", 1 ],
					"destination" : [ "obj-34", 1 ],
					"hidden" : 0,
					"midpoints" : [  ]
				}

			}
, 			{
				"patchline" : 				{
					"source" : [ "obj-37", 0 ],
					"destination" : [ "obj-34", 0 ],
					"hidden" : 0,
					"midpoints" : [  ]
				}

			}
, 			{
				"patchline" : 				{
					"source" : [ "obj-1", 1 ],
					"destination" : [ "obj-34", 2 ],
					"hidden" : 0,
					"midpoints" : [  ]
				}

			}
, 			{
				"patchline" : 				{
					"source" : [ "obj-1", 0 ],
					"destination" : [ "obj-37", 0 ],
					"hidden" : 0,
					"midpoints" : [  ]
				}

			}
, 			{
				"patchline" : 				{
					"source" : [ "obj-1", 4 ],
					"destination" : [ "obj-35", 0 ],
					"hidden" : 1,
					"midpoints" : [  ]
				}

			}
, 			{
				"patchline" : 				{
					"source" : [ "obj-8", 0 ],
					"destination" : [ "obj-2", 0 ],
					"hidden" : 0,
					"midpoints" : [  ]
				}

			}
, 			{
				"patchline" : 				{
					"source" : [ "obj-9", 0 ],
					"destination" : [ "obj-85", 0 ],
					"hidden" : 0,
					"midpoints" : [ 601.5, 59.0, 445.5, 59.0 ]
				}

			}
, 			{
				"patchline" : 				{
					"source" : [ "obj-10", 0 ],
					"destination" : [ "obj-85", 0 ],
					"hidden" : 0,
					"midpoints" : [ 759.5, 60.0, 445.5, 60.0 ]
				}

			}
, 			{
				"patchline" : 				{
					"source" : [ "obj-15", 0 ],
					"destination" : [ "obj-85", 0 ],
					"hidden" : 0,
					"midpoints" : [ 915.5, 60.0, 445.5, 60.0 ]
				}

			}
, 			{
				"patchline" : 				{
					"source" : [ "obj-17", 0 ],
					"destination" : [ "obj-57", 0 ],
					"hidden" : 0,
					"midpoints" : [  ]
				}

			}
, 			{
				"patchline" : 				{
					"source" : [ "obj-85", 0 ],
					"destination" : [ "obj-17", 0 ],
					"hidden" : 0,
					"midpoints" : [  ]
				}

			}
, 			{
				"patchline" : 				{
					"source" : [ "obj-81", 0 ],
					"destination" : [ "obj-8", 0 ],
					"hidden" : 0,
					"midpoints" : [  ]
				}

			}
, 			{
				"patchline" : 				{
					"source" : [ "obj-57", 0 ],
					"destination" : [ "obj-46", 0 ],
					"hidden" : 0,
					"midpoints" : [  ]
				}

			}
, 			{
				"patchline" : 				{
					"source" : [ "obj-46", 0 ],
					"destination" : [ "obj-82", 0 ],
					"hidden" : 0,
					"midpoints" : [  ]
				}

			}
 ]
	}

}
